<?xml version="1.0" encoding="utf-8" ?>
<svg baseProfile="tiny" height="200" version="1.2" width="200" xmlns="http://www.w3.org/2000/svg" xmlns:ev="http://www.w3.org/2001/xml-events" xmlns:xlink="http://www.w3.org/1999/xlink"><defs /><path d="M 164,147 164,174 165,175 170,175 171,174 171,156 174,153 178,153 178,147 175,147 172,150 171,149 171,147 Z" fill="black" stroke="none" /><path d="M 146,147 145,148 144,148 142,150 142,152 141,153 141,169 142,170 142,171 145,174 146,174 147,175 153,175 154,174 155,174 156,173 157,173 157,172 158,171 158,170 159,169 159,165 153,165 153,168 150,171 148,169 148,162 149,161 159,161 159,153 158,152 158,150 156,148 155,148 154,147 Z" fill="black" stroke="none" /><path d="M 108,147 107,148 106,148 105,149 105,150 104,151 104,157 107,160 107,161 108,161 114,167 114,170 113,171 111,171 108,168 108,167 106,167 105,168 103,168 103,169 104,170 104,171 107,174 108,174 109,175 115,175 116,174 117,174 120,171 120,169 121,168 120,167 120,165 119,164 119,163 114,158 113,158 110,155 110,152 111,151 113,151 115,153 115,154 116,155 117,155 118,154 119,154 120,153 120,152 119,151 119,150 117,148 116,148 115,147 Z" fill="black" stroke="none" /><path d="M 81,147 81,148 82,149 82,152 83,153 83,156 84,157 84,159 85,160 85,163 86,164 86,167 87,168 87,171 88,172 88,176 86,178 84,178 84,183 85,183 86,182 90,182 93,179 93,178 94,177 94,175 95,174 95,171 96,170 96,166 97,165 97,162 98,161 98,157 99,156 99,153 100,152 100,148 101,147 94,147 94,152 93,153 93,158 92,159 92,162 91,163 90,162 90,158 89,157 89,153 88,152 88,149 87,148 87,147 Z" fill="black" stroke="none" /><path d="M 65,147 64,148 63,148 62,149 62,150 61,151 61,153 60,154 60,155 61,156 66,156 66,155 67,154 67,153 69,151 71,153 71,157 69,159 67,159 66,160 65,160 64,161 63,161 61,163 61,164 60,165 60,171 61,172 61,173 62,174 63,174 64,175 68,175 71,172 72,173 72,174 73,175 78,175 78,154 77,153 77,150 74,147 Z" fill="black" stroke="none" /><path d="M 126,138 126,146 125,147 123,147 123,151 125,151 126,152 126,171 127,172 127,173 128,174 129,174 130,175 137,175 137,170 135,170 132,167 132,152 133,151 136,151 137,150 136,149 136,147 133,147 132,146 132,138 131,139 130,138 129,138 128,139 127,139 Z" fill="black" stroke="none" /><path d="M 48,136 48,175 54,175 54,136 Z" fill="black" stroke="none" /><path d="M 21,136 21,175 28,175 28,159 30,157 37,157 38,156 39,156 42,153 42,152 43,151 43,142 42,141 42,140 39,137 38,137 37,136 Z" fill="black" stroke="none" /><path d="M 127,16 126,17 125,17 121,21 121,22 115,28 115,29 109,35 109,36 102,43 102,44 96,50 96,51 89,58 89,59 83,65 83,66 78,71 78,75 79,76 87,76 88,77 89,76 90,76 91,77 91,78 89,80 89,81 88,82 88,83 86,85 86,86 84,88 84,89 83,90 83,91 81,93 81,94 80,95 80,96 78,98 78,99 77,100 77,101 75,103 75,104 73,106 73,107 72,108 72,109 70,111 70,112 69,113 69,114 68,115 68,116 69,117 69,118 70,119 73,119 74,118 75,118 76,117 76,116 88,104 88,103 100,91 100,90 113,77 113,76 125,64 125,63 126,62 126,60 124,58 121,58 120,57 119,58 116,58 115,57 114,58 112,56 114,54 114,53 115,52 115,51 116,50 116,49 117,48 117,47 118,46 118,45 119,44 119,43 120,42 120,41 121,40 121,39 122,38 122,37 123,36 123,35 124,34 124,33 125,32 125,31 126,30 126,29 128,27 128,26 129,25 129,24 130,23 130,22 131,21 131,19 129,17 128,17 Z" fill="black" stroke="none" /></svg>